<svg 
 xmlns="http://www.w3.org/2000/svg"
 xmlns:xlink="http://www.w3.org/1999/xlink"
 width="33px" height="23px">
<path fill-rule="evenodd"  fill="rgb(255, 255, 255)"
 d="M32.290,10.718 L32.290,20.598 C32.290,21.702 31.394,22.597 30.290,22.597 L5.962,22.597 C4.858,22.597 3.962,21.702 3.962,20.598 L3.962,18.947 L2.000,18.947 C0.895,18.947 -0.000,18.052 -0.000,16.947 L-0.000,2.062 C-0.000,0.958 0.895,0.062 2.000,0.062 L26.327,0.062 C27.432,0.062 28.327,0.958 28.327,2.062 L28.327,3.712 L30.290,3.712 C31.394,3.712 32.290,4.608 32.290,5.712 L32.290,7.675 L3.962,7.675 L3.962,5.712 C3.962,4.608 4.858,3.712 5.962,3.712 L26.801,3.712 L26.801,3.579 C26.801,2.475 25.906,1.579 24.801,1.579 L3.526,1.579 C2.421,1.579 1.526,2.475 1.526,3.579 L1.526,15.421 C1.526,16.526 2.421,17.421 3.526,17.421 L3.962,17.421 L3.962,10.718 L32.290,10.718 ZM25.128,19.094 L29.090,19.094 L29.090,17.578 L25.128,17.578 L25.128,19.094 Z"/>
</svg>
