<svg 
 xmlns="http://www.w3.org/2000/svg"
 xmlns:xlink="http://www.w3.org/1999/xlink"
 width="38px" height="32px">
<path fill-rule="evenodd"  fill="rgb(152, 152, 152)"
 d="M34.083,31.083 L3.917,31.083 C1.995,31.083 0.436,29.524 0.436,27.602 L0.436,9.038 C0.436,7.116 1.995,5.558 3.917,5.558 L9.718,5.558 L9.718,4.398 C9.718,2.475 11.276,0.917 13.199,0.917 L24.801,0.917 C26.723,0.917 28.281,2.475 28.281,4.398 L28.281,5.558 L34.083,5.558 C36.005,5.558 37.563,7.116 37.563,9.038 L37.563,27.602 C37.563,29.524 36.005,31.083 34.083,31.083 ZM35.243,9.619 C35.243,8.658 34.464,7.878 33.502,7.878 L25.961,7.878 L25.961,4.978 C25.961,4.016 25.182,3.237 24.221,3.237 L13.779,3.237 C12.818,3.237 12.039,4.016 12.039,4.978 L12.039,7.878 L4.497,7.878 C3.536,7.878 2.757,8.658 2.757,9.619 L2.757,27.022 C2.757,27.983 3.536,28.762 4.497,28.762 L33.502,28.762 C34.464,28.762 35.243,27.983 35.243,27.022 L35.243,9.619 ZM19.000,25.281 C14.514,25.281 10.878,21.645 10.878,17.160 C10.878,12.675 14.514,9.038 19.000,9.038 C23.485,9.038 27.121,12.675 27.121,17.160 C27.121,21.645 23.485,25.281 19.000,25.281 ZM19.000,11.359 C15.796,11.359 13.199,13.956 13.199,17.160 C13.199,20.364 15.796,22.961 19.000,22.961 C22.204,22.961 24.801,20.364 24.801,17.160 C24.801,13.956 22.204,11.359 19.000,11.359 ZM19.000,14.839 C17.718,14.839 16.679,15.878 16.679,17.160 C16.280,17.160 15.880,17.160 15.519,17.160 C15.519,15.237 17.077,13.679 19.000,13.679 L19.000,13.679 L19.000,14.839 Z"/>
</svg>
