<svg 
 xmlns="http://www.w3.org/2000/svg"
 xmlns:xlink="http://www.w3.org/1999/xlink"
 width="34px" height="28px">
<defs>
<filter id="Filter_0">
                <feFlood flood-color="rgb(255, 255, 255)" flood-opacity="1" result="floodOut" />
                <feComposite operator="atop" in="floodOut" in2="SourceGraphic" result="compOut" />
                <feBlend mode="normal" in="compOut" in2="SourceGraphic" />
            </filter>

</defs>
<g filter="url(#Filter_0)">
<path fill-rule="evenodd"  fill="rgb(255, 255, 255)"
 d="M31.229,27.759 L2.312,27.759 C1.035,27.759 -0.001,26.724 -0.001,25.446 L-0.001,6.939 C-0.001,5.662 1.035,4.626 2.312,4.626 L9.325,4.626 C9.325,4.626 9.253,4.488 9.253,2.891 C9.253,1.294 10.547,-0.001 12.145,-0.001 L21.398,-0.001 C22.994,-0.001 24.289,1.294 24.289,2.891 C24.289,4.488 24.362,4.626 24.362,4.626 L31.229,4.626 C32.506,4.626 33.542,5.662 33.542,6.939 L33.542,25.446 C33.542,26.724 32.506,27.759 31.229,27.759 ZM16.823,23.101 C20.655,23.101 23.763,19.994 23.763,16.162 C23.763,12.329 20.655,9.222 16.823,9.222 C12.989,9.222 9.883,12.329 9.883,16.162 C9.883,19.994 12.989,23.101 16.823,23.101 Z"/>
</g>
</svg>
