<svg 
 xmlns="http://www.w3.org/2000/svg"
 xmlns:xlink="http://www.w3.org/1999/xlink"
 width="32px" height="30px">
<path fill-rule="evenodd"  fill="rgb(255, 255, 255)"
 d="M25.801,29.928 L7.944,29.928 C4.630,29.928 1.945,27.242 1.945,23.928 L1.945,20.971 L4.183,20.971 L4.183,25.549 C4.183,26.654 5.079,27.549 6.184,27.549 L27.422,27.549 C28.527,27.549 29.422,26.654 29.422,25.549 L29.422,20.971 L31.801,20.971 L31.801,23.928 C31.801,27.242 29.115,29.928 25.801,29.928 ZM28.069,13.507 L31.801,13.507 L31.801,16.493 L28.069,16.493 L28.069,13.507 ZM29.422,4.311 C29.422,3.206 28.527,2.310 27.422,2.310 L6.184,2.310 C5.079,2.310 4.183,3.206 4.183,4.311 L4.183,9.028 L1.945,9.028 L1.945,6.071 C1.945,2.758 4.630,0.071 7.944,0.071 L25.801,0.071 C29.115,0.071 31.801,2.758 31.801,6.071 L31.801,9.028 L29.422,9.028 L29.422,4.311 ZM8.980,4.107 L24.766,4.107 C26.423,4.107 27.766,5.450 27.766,7.106 L27.766,13.507 L5.980,13.507 L5.980,7.106 C5.980,5.450 7.323,4.107 8.980,4.107 ZM24.766,25.893 L8.980,25.893 C7.323,25.893 5.980,24.550 5.980,22.893 L5.980,16.493 L27.766,16.493 L27.766,22.893 C27.766,24.550 26.423,25.893 24.766,25.893 ZM5.676,16.493 L0.451,16.493 L0.451,13.507 L5.676,13.507 L5.676,16.493 Z"/>
</svg>
