<svg 
 xmlns="http://www.w3.org/2000/svg"
 xmlns:xlink="http://www.w3.org/1999/xlink"
 width="33px" height="34px">
<path fill-rule="evenodd"  stroke="rgb(128, 128, 128)" stroke-width="2px" stroke-linecap="butt" stroke-linejoin="miter" fill="none"
 d="M20.000,15.000 L20.000,30.000 C20.000,31.104 19.104,32.000 18.000,32.000 L12.000,27.000 C10.895,27.000 10.000,26.104 10.000,25.000 L10.000,13.818 L1.000,4.000 C1.000,2.343 2.342,1.000 3.999,1.000 L28.000,1.000 C29.657,1.000 31.000,2.343 31.000,4.000 L20.000,15.000 ZM28.999,19.000 L22.999,19.000 L22.999,17.000 L28.999,17.000 L28.999,19.000 ZM28.999,23.000 L22.999,23.000 L22.999,21.000 L28.999,21.000 L28.999,23.000 ZM28.999,27.000 L22.999,27.000 L22.999,25.000 L28.999,25.000 L28.999,27.000 Z"/>
</svg>
