<svg 
 xmlns="http://www.w3.org/2000/svg"
 xmlns:xlink="http://www.w3.org/1999/xlink"
 width="36px" height="35px">
<path fill-rule="evenodd"  fill="rgb(78, 110, 242)"
 d="M35.827,28.612 C35.233,26.888 33.264,26.641 31.620,25.948 C29.814,25.186 27.812,24.302 26.011,23.563 C25.497,23.423 24.982,23.283 24.468,23.143 C23.855,22.720 23.253,21.317 22.926,20.619 C22.599,20.572 22.272,20.525 21.944,20.479 C21.994,19.399 22.663,19.341 22.926,18.516 C23.157,17.788 22.949,16.842 23.317,16.169 C23.571,15.701 24.147,15.698 24.434,15.297 C24.695,14.933 24.867,14.298 24.948,13.853 C25.097,13.038 25.226,11.923 24.839,11.115 C24.617,10.651 24.477,10.607 24.415,10.043 C24.339,9.360 24.616,7.132 24.627,6.651 C24.656,5.401 24.625,5.300 24.323,4.083 C24.323,4.083 23.956,2.980 23.380,2.648 L22.233,2.450 L21.524,1.793 C18.666,0.035 15.603,1.269 13.962,1.933 C11.598,2.700 10.103,5.016 11.147,9.962 C11.325,10.806 10.684,11.183 10.726,11.645 C10.818,12.653 10.837,15.076 11.789,15.673 C11.878,15.728 12.553,15.897 12.549,15.851 C12.643,16.832 12.736,17.815 12.829,18.796 C13.067,19.448 13.638,19.520 13.803,20.441 L13.074,20.619 C12.745,21.317 12.144,22.720 11.531,23.143 C11.017,23.283 10.502,23.423 9.988,23.563 C8.187,24.302 6.185,25.186 4.379,25.948 C2.735,26.641 0.767,26.888 0.172,28.612 C0.172,29.782 0.062,32.547 0.092,34.081 L15.812,34.081 L16.966,26.198 L16.007,24.173 L18.222,23.112 L20.087,24.152 L19.059,26.237 L20.877,34.081 L35.907,34.081 C35.937,32.547 35.827,29.782 35.827,28.612 Z"/>
</svg>
