<svg 
 xmlns="http://www.w3.org/2000/svg"
 xmlns:xlink="http://www.w3.org/1999/xlink"
 width="35px" height="31px">
<path fill-rule="evenodd"  stroke="rgb(223, 14, 14)" stroke-width="2px" stroke-linecap="butt" stroke-linejoin="miter" fill="none"
 d="M0.999,29.000 L0.999,5.000 C0.999,2.790 2.791,1.000 5.000,1.000 C7.209,1.000 8.999,2.790 8.999,5.000 C8.999,2.790 10.790,1.000 13.000,1.000 C15.209,1.000 17.000,2.790 17.000,5.000 C17.000,2.790 18.791,1.000 20.999,1.000 C23.209,1.000 25.000,2.790 25.000,5.000 C25.000,2.790 26.790,1.000 28.999,1.000 C31.209,1.000 33.000,2.790 33.000,5.000 L33.000,29.000 L0.999,29.000 Z"/>
<path fill-rule="evenodd"  stroke="rgb(223, 14, 14)" stroke-width="2px" stroke-linecap="butt" stroke-linejoin="miter" fill="none"
 d="M29.999,29.000 L29.999,27.000 L32.000,27.000 L32.000,29.000 L29.999,29.000 ZM29.999,22.000 L32.000,22.000 L32.000,24.000 L29.999,24.000 L29.999,22.000 ZM26.000,27.000 L28.000,27.000 L28.000,29.000 L26.000,29.000 L26.000,27.000 Z"/>
<path fill-rule="evenodd"  fill="rgb(223, 14, 14)"
 d="M13.157,23.408 C13.046,22.667 13.009,22.074 13.009,21.018 L13.009,19.759 L15.750,19.759 C16.565,19.759 17.065,19.796 17.695,19.907 L17.695,17.796 C17.047,17.907 16.584,17.944 15.750,17.944 L13.009,17.944 L13.009,17.407 L13.621,16.444 L15.787,16.444 C16.603,16.444 17.102,16.481 17.732,16.592 L17.732,14.481 C17.121,14.592 16.621,14.629 15.787,14.629 L14.750,14.629 L17.306,10.554 C17.640,10.017 18.380,8.961 18.621,8.646 L15.417,8.646 C15.269,9.146 15.046,9.610 14.528,10.480 L11.787,15.166 L9.045,10.461 C8.527,9.591 8.323,9.184 8.157,8.646 L4.971,8.646 C5.249,8.998 5.730,9.720 6.267,10.554 L8.842,14.629 L7.805,14.629 C6.953,14.629 6.471,14.592 5.860,14.481 L5.860,16.592 C6.490,16.481 6.953,16.444 7.805,16.444 L9.953,16.444 L10.564,17.388 L10.564,17.944 L7.768,17.944 C6.916,17.944 6.471,17.907 5.823,17.796 L5.823,19.907 C6.453,19.796 6.934,19.759 7.768,19.759 L10.564,19.759 L10.564,21.018 C10.564,21.926 10.509,22.686 10.416,23.408 L13.157,23.408 Z"/>
<path fill-rule="evenodd"  fill="rgb(223, 14, 14)"
 d="M19.999,15.000 L19.999,12.000 L28.000,12.000 L28.000,15.000 L19.999,15.000 ZM26.000,19.000 L19.999,19.000 L19.999,17.000 L26.000,17.000 L26.000,19.000 Z"/>
</svg>
