<svg 
 xmlns="http://www.w3.org/2000/svg"
 xmlns:xlink="http://www.w3.org/1999/xlink"
 width="30px" height="31px">
<path fill-rule="evenodd"  fill="rgb(255, 255, 255)"
 d="M27.228,30.568 L2.372,30.568 C1.268,30.568 0.372,29.672 0.372,28.568 L0.372,13.447 C0.372,12.342 1.268,11.447 2.372,11.447 L27.228,11.447 C28.332,11.447 29.228,12.342 29.228,13.447 L29.228,28.568 C29.228,29.672 28.332,30.568 27.228,30.568 ZM22.557,20.703 C20.889,20.703 19.537,22.055 19.537,23.723 C19.537,25.391 20.889,26.744 22.557,26.744 C24.225,26.744 25.577,25.391 25.577,23.723 C25.577,22.055 24.225,20.703 22.557,20.703 Z"/>
<path fill-rule="evenodd"  fill="rgb(255, 255, 255)"
 d="M15.875,5.864 L13.680,3.669 C13.308,3.297 12.705,3.297 12.333,3.669 L1.596,14.406 L0.743,13.552 C0.354,13.163 0.354,12.532 0.743,12.143 L12.333,0.553 C12.722,0.164 13.353,0.164 13.742,0.553 L17.464,4.275 L15.875,5.864 Z"/>
<path fill-rule="evenodd"  fill="rgb(255, 255, 255)"
 d="M29.238,10.103 L16.203,23.138 C15.765,23.576 15.056,23.576 14.618,23.138 L6.515,15.035 C6.078,14.597 6.078,13.888 6.515,13.450 L19.550,0.416 C19.988,-0.022 20.698,-0.022 21.135,0.416 L29.238,8.518 C29.676,8.956 29.676,9.666 29.238,10.103 ZM26.241,9.037 L20.790,3.585 C20.495,3.291 20.018,3.291 19.723,3.585 L10.953,12.355 C10.658,12.650 10.658,13.128 10.953,13.422 L16.405,18.874 C16.699,19.168 17.176,19.168 17.471,18.874 L26.241,10.104 C26.536,9.809 26.536,9.331 26.241,9.037 Z"/>
</svg>
